<?xml version="1.0" encoding="utf-8" standalone="no"?>
<!DOCTYPE svg PUBLIC "-//W3C//DTD SVG 1.1//EN"
  "http://www.w3.org/Graphics/SVG/1.1/DTD/svg11.dtd">
<svg xmlns:xlink="http://www.w3.org/1999/xlink" width="572.4pt" height="347.04pt" viewBox="0 0 572.4 347.04" xmlns="http://www.w3.org/2000/svg" version="1.1">
 <metadata>
  <rdf:RDF xmlns:dc="http://purl.org/dc/elements/1.1/" xmlns:cc="http://creativecommons.org/ns#" xmlns:rdf="http://www.w3.org/1999/02/22-rdf-syntax-ns#">
   <cc:Work>
    <dc:type rdf:resource="http://purl.org/dc/dcmitype/StillImage"/>
    <dc:date>2024-09-23T02:10:03.640528</dc:date>
    <dc:format>image/svg+xml</dc:format>
    <dc:creator>
     <cc:Agent>
      <dc:title>Matplotlib v3.6.3, https://matplotlib.org/</dc:title>
     </cc:Agent>
    </dc:creator>
   </cc:Work>
  </rdf:RDF>
 </metadata>
 <defs>
  <style type="text/css">*{stroke-linejoin: round; stroke-linecap: butt}</style>
 </defs>
 <g id="figure_1">
  <g id="patch_1">
   <path d="M 0 347.04 
L 572.4 347.04 
L 572.4 -0 
L 0 -0 
L 0 347.04 
z
" style="fill: none"/>
  </g>
  <g id="axes_1">
   <g id="text_1">
    <!--  -->
    <g style="fill: #333333" transform="translate(286.2 110.472187) scale(0.15 -0.15)"/>
    <!-- \text{{match}}(s,t) \in -->
    <g style="fill: #333333" transform="translate(199.233984 127.268906) scale(0.15 -0.15)">
     <defs>
      <path id="DejaVuSans-5c" d="M 531 4666 
L 2156 -594 
L 1625 -594 
L 0 4666 
L 531 4666 
z
" transform="scale(0.015625)"/>
      <path id="DejaVuSans-74" d="M 1172 4494 
L 1172 3500 
L 2356 3500 
L 2356 3053 
L 1172 3053 
L 1172 1153 
Q 1172 725 1289 603 
Q 1406 481 1766 481 
L 2356 481 
L 2356 0 
L 1766 0 
Q 1100 0 847 248 
Q 594 497 594 1153 
L 594 3053 
L 172 3053 
L 172 3500 
L 594 3500 
L 594 4494 
L 1172 4494 
z
" transform="scale(0.015625)"/>
      <path id="DejaVuSans-65" d="M 3597 1894 
L 3597 1613 
L 953 1613 
Q 991 1019 1311 708 
Q 1631 397 2203 397 
Q 2534 397 2845 478 
Q 3156 559 3463 722 
L 3463 178 
Q 3153 47 2828 -22 
Q 2503 -91 2169 -91 
Q 1331 -91 842 396 
Q 353 884 353 1716 
Q 353 2575 817 3079 
Q 1281 3584 2069 3584 
Q 2775 3584 3186 3129 
Q 3597 2675 3597 1894 
z
M 3022 2063 
Q 3016 2534 2758 2815 
Q 2500 3097 2075 3097 
Q 1594 3097 1305 2825 
Q 1016 2553 972 2059 
L 3022 2063 
z
" transform="scale(0.015625)"/>
      <path id="DejaVuSans-78" d="M 3513 3500 
L 2247 1797 
L 3578 0 
L 2900 0 
L 1881 1375 
L 863 0 
L 184 0 
L 1544 1831 
L 300 3500 
L 978 3500 
L 1906 2253 
L 2834 3500 
L 3513 3500 
z
" transform="scale(0.015625)"/>
      <path id="DejaVuSans-7b" d="M 3272 -594 
L 3272 -1044 
L 3078 -1044 
Q 2300 -1044 2036 -812 
Q 1772 -581 1772 109 
L 1772 856 
Q 1772 1328 1603 1509 
Q 1434 1691 991 1691 
L 800 1691 
L 800 2138 
L 991 2138 
Q 1438 2138 1605 2317 
Q 1772 2497 1772 2963 
L 1772 3713 
Q 1772 4403 2036 4633 
Q 2300 4863 3078 4863 
L 3272 4863 
L 3272 4416 
L 3059 4416 
Q 2619 4416 2484 4278 
Q 2350 4141 2350 3700 
L 2350 2925 
Q 2350 2434 2208 2212 
Q 2066 1991 1722 1913 
Q 2069 1828 2209 1606 
Q 2350 1384 2350 897 
L 2350 122 
Q 2350 -319 2484 -456 
Q 2619 -594 3059 -594 
L 3272 -594 
z
" transform="scale(0.015625)"/>
      <path id="DejaVuSans-6d" d="M 3328 2828 
Q 3544 3216 3844 3400 
Q 4144 3584 4550 3584 
Q 5097 3584 5394 3201 
Q 5691 2819 5691 2113 
L 5691 0 
L 5113 0 
L 5113 2094 
Q 5113 2597 4934 2840 
Q 4756 3084 4391 3084 
Q 3944 3084 3684 2787 
Q 3425 2491 3425 1978 
L 3425 0 
L 2847 0 
L 2847 2094 
Q 2847 2600 2669 2842 
Q 2491 3084 2119 3084 
Q 1678 3084 1418 2786 
Q 1159 2488 1159 1978 
L 1159 0 
L 581 0 
L 581 3500 
L 1159 3500 
L 1159 2956 
Q 1356 3278 1631 3431 
Q 1906 3584 2284 3584 
Q 2666 3584 2933 3390 
Q 3200 3197 3328 2828 
z
" transform="scale(0.015625)"/>
      <path id="DejaVuSans-61" d="M 2194 1759 
Q 1497 1759 1228 1600 
Q 959 1441 959 1056 
Q 959 750 1161 570 
Q 1363 391 1709 391 
Q 2188 391 2477 730 
Q 2766 1069 2766 1631 
L 2766 1759 
L 2194 1759 
z
M 3341 1997 
L 3341 0 
L 2766 0 
L 2766 531 
Q 2569 213 2275 61 
Q 1981 -91 1556 -91 
Q 1019 -91 701 211 
Q 384 513 384 1019 
Q 384 1609 779 1909 
Q 1175 2209 1959 2209 
L 2766 2209 
L 2766 2266 
Q 2766 2663 2505 2880 
Q 2244 3097 1772 3097 
Q 1472 3097 1187 3025 
Q 903 2953 641 2809 
L 641 3341 
Q 956 3463 1253 3523 
Q 1550 3584 1831 3584 
Q 2591 3584 2966 3190 
Q 3341 2797 3341 1997 
z
" transform="scale(0.015625)"/>
      <path id="DejaVuSans-63" d="M 3122 3366 
L 3122 2828 
Q 2878 2963 2633 3030 
Q 2388 3097 2138 3097 
Q 1578 3097 1268 2742 
Q 959 2388 959 1747 
Q 959 1106 1268 751 
Q 1578 397 2138 397 
Q 2388 397 2633 464 
Q 2878 531 3122 666 
L 3122 134 
Q 2881 22 2623 -34 
Q 2366 -91 2075 -91 
Q 1284 -91 818 406 
Q 353 903 353 1747 
Q 353 2603 823 3093 
Q 1294 3584 2113 3584 
Q 2378 3584 2631 3529 
Q 2884 3475 3122 3366 
z
" transform="scale(0.015625)"/>
      <path id="DejaVuSans-68" d="M 3513 2113 
L 3513 0 
L 2938 0 
L 2938 2094 
Q 2938 2591 2744 2837 
Q 2550 3084 2163 3084 
Q 1697 3084 1428 2787 
Q 1159 2491 1159 1978 
L 1159 0 
L 581 0 
L 581 4863 
L 1159 4863 
L 1159 2956 
Q 1366 3272 1645 3428 
Q 1925 3584 2291 3584 
Q 2894 3584 3203 3211 
Q 3513 2838 3513 2113 
z
" transform="scale(0.015625)"/>
      <path id="DejaVuSans-7d" d="M 800 -594 
L 1019 -594 
Q 1456 -594 1589 -459 
Q 1722 -325 1722 122 
L 1722 897 
Q 1722 1384 1862 1606 
Q 2003 1828 2350 1913 
Q 2003 1991 1862 2212 
Q 1722 2434 1722 2925 
L 1722 3700 
Q 1722 4144 1589 4280 
Q 1456 4416 1019 4416 
L 800 4416 
L 800 4863 
L 997 4863 
Q 1775 4863 2036 4633 
Q 2297 4403 2297 3713 
L 2297 2963 
Q 2297 2497 2465 2317 
Q 2634 2138 3078 2138 
L 3272 2138 
L 3272 1691 
L 3078 1691 
Q 2634 1691 2465 1509 
Q 2297 1328 2297 856 
L 2297 109 
Q 2297 -581 2036 -812 
Q 1775 -1044 997 -1044 
L 800 -1044 
L 800 -594 
z
" transform="scale(0.015625)"/>
      <path id="DejaVuSans-28" d="M 1984 4856 
Q 1566 4138 1362 3434 
Q 1159 2731 1159 2009 
Q 1159 1288 1364 580 
Q 1569 -128 1984 -844 
L 1484 -844 
Q 1016 -109 783 600 
Q 550 1309 550 2009 
Q 550 2706 781 3412 
Q 1013 4119 1484 4856 
L 1984 4856 
z
" transform="scale(0.015625)"/>
      <path id="DejaVuSans-73" d="M 2834 3397 
L 2834 2853 
Q 2591 2978 2328 3040 
Q 2066 3103 1784 3103 
Q 1356 3103 1142 2972 
Q 928 2841 928 2578 
Q 928 2378 1081 2264 
Q 1234 2150 1697 2047 
L 1894 2003 
Q 2506 1872 2764 1633 
Q 3022 1394 3022 966 
Q 3022 478 2636 193 
Q 2250 -91 1575 -91 
Q 1294 -91 989 -36 
Q 684 19 347 128 
L 347 722 
Q 666 556 975 473 
Q 1284 391 1588 391 
Q 1994 391 2212 530 
Q 2431 669 2431 922 
Q 2431 1156 2273 1281 
Q 2116 1406 1581 1522 
L 1381 1569 
Q 847 1681 609 1914 
Q 372 2147 372 2553 
Q 372 3047 722 3315 
Q 1072 3584 1716 3584 
Q 2034 3584 2315 3537 
Q 2597 3491 2834 3397 
z
" transform="scale(0.015625)"/>
      <path id="DejaVuSans-2c" d="M 750 794 
L 1409 794 
L 1409 256 
L 897 -744 
L 494 -744 
L 750 256 
L 750 794 
z
" transform="scale(0.015625)"/>
      <path id="DejaVuSans-29" d="M 513 4856 
L 1013 4856 
Q 1481 4119 1714 3412 
Q 1947 2706 1947 2009 
Q 1947 1309 1714 600 
Q 1481 -109 1013 -844 
L 513 -844 
Q 928 -128 1133 580 
Q 1338 1288 1338 2009 
Q 1338 2731 1133 3434 
Q 928 4138 513 4856 
z
" transform="scale(0.015625)"/>
      <path id="DejaVuSans-20" transform="scale(0.015625)"/>
      <path id="DejaVuSans-69" d="M 603 3500 
L 1178 3500 
L 1178 0 
L 603 0 
L 603 3500 
z
M 603 4863 
L 1178 4863 
L 1178 4134 
L 603 4134 
L 603 4863 
z
" transform="scale(0.015625)"/>
      <path id="DejaVuSans-6e" d="M 3513 2113 
L 3513 0 
L 2938 0 
L 2938 2094 
Q 2938 2591 2744 2837 
Q 2550 3084 2163 3084 
Q 1697 3084 1428 2787 
Q 1159 2491 1159 1978 
L 1159 0 
L 581 0 
L 581 3500 
L 1159 3500 
L 1159 2956 
Q 1366 3272 1645 3428 
Q 1925 3584 2291 3584 
Q 2894 3584 3203 3211 
Q 3513 2838 3513 2113 
z
" transform="scale(0.015625)"/>
     </defs>
     <use xlink:href="#DejaVuSans-5c"/>
     <use xlink:href="#DejaVuSans-74" x="33.691406"/>
     <use xlink:href="#DejaVuSans-65" x="72.900391"/>
     <use xlink:href="#DejaVuSans-78" x="132.673828"/>
     <use xlink:href="#DejaVuSans-74" x="191.853516"/>
     <use xlink:href="#DejaVuSans-7b" x="231.0625"/>
     <use xlink:href="#DejaVuSans-7b" x="294.685547"/>
     <use xlink:href="#DejaVuSans-6d" x="358.308594"/>
     <use xlink:href="#DejaVuSans-61" x="455.720703"/>
     <use xlink:href="#DejaVuSans-74" x="517"/>
     <use xlink:href="#DejaVuSans-63" x="556.208984"/>
     <use xlink:href="#DejaVuSans-68" x="611.189453"/>
     <use xlink:href="#DejaVuSans-7d" x="674.568359"/>
     <use xlink:href="#DejaVuSans-7d" x="738.191406"/>
     <use xlink:href="#DejaVuSans-28" x="801.814453"/>
     <use xlink:href="#DejaVuSans-73" x="840.828125"/>
     <use xlink:href="#DejaVuSans-2c" x="892.927734"/>
     <use xlink:href="#DejaVuSans-74" x="924.714844"/>
     <use xlink:href="#DejaVuSans-29" x="963.923828"/>
     <use xlink:href="#DejaVuSans-20" x="1002.9375"/>
     <use xlink:href="#DejaVuSans-5c" x="1034.724609"/>
     <use xlink:href="#DejaVuSans-69" x="1068.416016"/>
     <use xlink:href="#DejaVuSans-6e" x="1096.199219"/>
    </g>
    <!-- \begin{cases} -->
    <g style="fill: #333333" transform="translate(232.006641 144.065625) scale(0.15 -0.15)">
     <defs>
      <path id="DejaVuSans-62" d="M 3116 1747 
Q 3116 2381 2855 2742 
Q 2594 3103 2138 3103 
Q 1681 3103 1420 2742 
Q 1159 2381 1159 1747 
Q 1159 1113 1420 752 
Q 1681 391 2138 391 
Q 2594 391 2855 752 
Q 3116 1113 3116 1747 
z
M 1159 2969 
Q 1341 3281 1617 3432 
Q 1894 3584 2278 3584 
Q 2916 3584 3314 3078 
Q 3713 2572 3713 1747 
Q 3713 922 3314 415 
Q 2916 -91 2278 -91 
Q 1894 -91 1617 61 
Q 1341 213 1159 525 
L 1159 0 
L 581 0 
L 581 4863 
L 1159 4863 
L 1159 2969 
z
" transform="scale(0.015625)"/>
      <path id="DejaVuSans-67" d="M 2906 1791 
Q 2906 2416 2648 2759 
Q 2391 3103 1925 3103 
Q 1463 3103 1205 2759 
Q 947 2416 947 1791 
Q 947 1169 1205 825 
Q 1463 481 1925 481 
Q 2391 481 2648 825 
Q 2906 1169 2906 1791 
z
M 3481 434 
Q 3481 -459 3084 -895 
Q 2688 -1331 1869 -1331 
Q 1566 -1331 1297 -1286 
Q 1028 -1241 775 -1147 
L 775 -588 
Q 1028 -725 1275 -790 
Q 1522 -856 1778 -856 
Q 2344 -856 2625 -561 
Q 2906 -266 2906 331 
L 2906 616 
Q 2728 306 2450 153 
Q 2172 0 1784 0 
Q 1141 0 747 490 
Q 353 981 353 1791 
Q 353 2603 747 3093 
Q 1141 3584 1784 3584 
Q 2172 3584 2450 3431 
Q 2728 3278 2906 2969 
L 2906 3500 
L 3481 3500 
L 3481 434 
z
" transform="scale(0.015625)"/>
     </defs>
     <use xlink:href="#DejaVuSans-5c"/>
     <use xlink:href="#DejaVuSans-62" x="33.691406"/>
     <use xlink:href="#DejaVuSans-65" x="97.167969"/>
     <use xlink:href="#DejaVuSans-67" x="158.691406"/>
     <use xlink:href="#DejaVuSans-69" x="222.167969"/>
     <use xlink:href="#DejaVuSans-6e" x="249.951172"/>
     <use xlink:href="#DejaVuSans-7b" x="313.330078"/>
     <use xlink:href="#DejaVuSans-63" x="376.953125"/>
     <use xlink:href="#DejaVuSans-61" x="431.933594"/>
     <use xlink:href="#DejaVuSans-73" x="493.212891"/>
     <use xlink:href="#DejaVuSans-65" x="545.3125"/>
     <use xlink:href="#DejaVuSans-73" x="606.835938"/>
     <use xlink:href="#DejaVuSans-7d" x="658.935547"/>
    </g>
    <!-- U, &amp; \text{{if }} \text{{LCS}}(s,t) &lt; 10 \\ -->
    <g style="fill: #333333" transform="translate(128.092969 160.862344) scale(0.15 -0.15)">
     <defs>
      <path id="DejaVuSans-55" d="M 556 4666 
L 1191 4666 
L 1191 1831 
Q 1191 1081 1462 751 
Q 1734 422 2344 422 
Q 2950 422 3222 751 
Q 3494 1081 3494 1831 
L 3494 4666 
L 4128 4666 
L 4128 1753 
Q 4128 841 3676 375 
Q 3225 -91 2344 -91 
Q 1459 -91 1007 375 
Q 556 841 556 1753 
L 556 4666 
z
" transform="scale(0.015625)"/>
      <path id="DejaVuSans-26" d="M 1556 2509 
Q 1272 2256 1139 2004 
Q 1006 1753 1006 1478 
Q 1006 1022 1337 719 
Q 1669 416 2169 416 
Q 2466 416 2725 514 
Q 2984 613 3213 813 
L 1556 2509 
z
M 1997 2859 
L 3584 1234 
Q 3769 1513 3872 1830 
Q 3975 2147 3994 2503 
L 4575 2503 
Q 4538 2091 4375 1687 
Q 4213 1284 3922 891 
L 4794 0 
L 4006 0 
L 3559 459 
Q 3234 181 2878 45 
Q 2522 -91 2113 -91 
Q 1359 -91 881 339 
Q 403 769 403 1441 
Q 403 1841 612 2192 
Q 822 2544 1241 2853 
Q 1091 3050 1012 3245 
Q 934 3441 934 3628 
Q 934 4134 1281 4442 
Q 1628 4750 2203 4750 
Q 2463 4750 2720 4694 
Q 2978 4638 3244 4525 
L 3244 3956 
Q 2972 4103 2725 4179 
Q 2478 4256 2266 4256 
Q 1938 4256 1733 4082 
Q 1528 3909 1528 3634 
Q 1528 3475 1620 3314 
Q 1713 3153 1997 2859 
z
" transform="scale(0.015625)"/>
      <path id="DejaVuSans-66" d="M 2375 4863 
L 2375 4384 
L 1825 4384 
Q 1516 4384 1395 4259 
Q 1275 4134 1275 3809 
L 1275 3500 
L 2222 3500 
L 2222 3053 
L 1275 3053 
L 1275 0 
L 697 0 
L 697 3053 
L 147 3053 
L 147 3500 
L 697 3500 
L 697 3744 
Q 697 4328 969 4595 
Q 1241 4863 1831 4863 
L 2375 4863 
z
" transform="scale(0.015625)"/>
      <path id="DejaVuSans-4c" d="M 628 4666 
L 1259 4666 
L 1259 531 
L 3531 531 
L 3531 0 
L 628 0 
L 628 4666 
z
" transform="scale(0.015625)"/>
      <path id="DejaVuSans-43" d="M 4122 4306 
L 4122 3641 
Q 3803 3938 3442 4084 
Q 3081 4231 2675 4231 
Q 1875 4231 1450 3742 
Q 1025 3253 1025 2328 
Q 1025 1406 1450 917 
Q 1875 428 2675 428 
Q 3081 428 3442 575 
Q 3803 722 4122 1019 
L 4122 359 
Q 3791 134 3420 21 
Q 3050 -91 2638 -91 
Q 1578 -91 968 557 
Q 359 1206 359 2328 
Q 359 3453 968 4101 
Q 1578 4750 2638 4750 
Q 3056 4750 3426 4639 
Q 3797 4528 4122 4306 
z
" transform="scale(0.015625)"/>
      <path id="DejaVuSans-53" d="M 3425 4513 
L 3425 3897 
Q 3066 4069 2747 4153 
Q 2428 4238 2131 4238 
Q 1616 4238 1336 4038 
Q 1056 3838 1056 3469 
Q 1056 3159 1242 3001 
Q 1428 2844 1947 2747 
L 2328 2669 
Q 3034 2534 3370 2195 
Q 3706 1856 3706 1288 
Q 3706 609 3251 259 
Q 2797 -91 1919 -91 
Q 1588 -91 1214 -16 
Q 841 59 441 206 
L 441 856 
Q 825 641 1194 531 
Q 1563 422 1919 422 
Q 2459 422 2753 634 
Q 3047 847 3047 1241 
Q 3047 1584 2836 1778 
Q 2625 1972 2144 2069 
L 1759 2144 
Q 1053 2284 737 2584 
Q 422 2884 422 3419 
Q 422 4038 858 4394 
Q 1294 4750 2059 4750 
Q 2388 4750 2728 4690 
Q 3069 4631 3425 4513 
z
" transform="scale(0.015625)"/>
      <path id="DejaVuSans-3c" d="M 4684 3150 
L 1459 2003 
L 4684 863 
L 4684 294 
L 678 1747 
L 678 2266 
L 4684 3719 
L 4684 3150 
z
" transform="scale(0.015625)"/>
      <path id="DejaVuSans-31" d="M 794 531 
L 1825 531 
L 1825 4091 
L 703 3866 
L 703 4441 
L 1819 4666 
L 2450 4666 
L 2450 531 
L 3481 531 
L 3481 0 
L 794 0 
L 794 531 
z
" transform="scale(0.015625)"/>
      <path id="DejaVuSans-30" d="M 2034 4250 
Q 1547 4250 1301 3770 
Q 1056 3291 1056 2328 
Q 1056 1369 1301 889 
Q 1547 409 2034 409 
Q 2525 409 2770 889 
Q 3016 1369 3016 2328 
Q 3016 3291 2770 3770 
Q 2525 4250 2034 4250 
z
M 2034 4750 
Q 2819 4750 3233 4129 
Q 3647 3509 3647 2328 
Q 3647 1150 3233 529 
Q 2819 -91 2034 -91 
Q 1250 -91 836 529 
Q 422 1150 422 2328 
Q 422 3509 836 4129 
Q 1250 4750 2034 4750 
z
" transform="scale(0.015625)"/>
     </defs>
     <use xlink:href="#DejaVuSans-55"/>
     <use xlink:href="#DejaVuSans-2c" x="73.193359"/>
     <use xlink:href="#DejaVuSans-20" x="104.980469"/>
     <use xlink:href="#DejaVuSans-26" x="136.767578"/>
     <use xlink:href="#DejaVuSans-20" x="214.746094"/>
     <use xlink:href="#DejaVuSans-5c" x="246.533203"/>
     <use xlink:href="#DejaVuSans-74" x="280.224609"/>
     <use xlink:href="#DejaVuSans-65" x="319.433594"/>
     <use xlink:href="#DejaVuSans-78" x="379.207031"/>
     <use xlink:href="#DejaVuSans-74" x="438.386719"/>
     <use xlink:href="#DejaVuSans-7b" x="477.595703"/>
     <use xlink:href="#DejaVuSans-7b" x="541.21875"/>
     <use xlink:href="#DejaVuSans-69" x="604.841797"/>
     <use xlink:href="#DejaVuSans-66" x="632.625"/>
     <use xlink:href="#DejaVuSans-20" x="667.830078"/>
     <use xlink:href="#DejaVuSans-7d" x="699.617188"/>
     <use xlink:href="#DejaVuSans-7d" x="763.240234"/>
     <use xlink:href="#DejaVuSans-20" x="826.863281"/>
     <use xlink:href="#DejaVuSans-5c" x="858.650391"/>
     <use xlink:href="#DejaVuSans-74" x="892.341797"/>
     <use xlink:href="#DejaVuSans-65" x="931.550781"/>
     <use xlink:href="#DejaVuSans-78" x="991.324219"/>
     <use xlink:href="#DejaVuSans-74" x="1050.503906"/>
     <use xlink:href="#DejaVuSans-7b" x="1089.712891"/>
     <use xlink:href="#DejaVuSans-7b" x="1153.335938"/>
     <use xlink:href="#DejaVuSans-4c" x="1216.958984"/>
     <use xlink:href="#DejaVuSans-43" x="1272.671875"/>
     <use xlink:href="#DejaVuSans-53" x="1342.496094"/>
     <use xlink:href="#DejaVuSans-7d" x="1405.972656"/>
     <use xlink:href="#DejaVuSans-7d" x="1469.595703"/>
     <use xlink:href="#DejaVuSans-28" x="1533.21875"/>
     <use xlink:href="#DejaVuSans-73" x="1572.232422"/>
     <use xlink:href="#DejaVuSans-2c" x="1624.332031"/>
     <use xlink:href="#DejaVuSans-74" x="1656.119141"/>
     <use xlink:href="#DejaVuSans-29" x="1695.328125"/>
     <use xlink:href="#DejaVuSans-20" x="1734.341797"/>
     <use xlink:href="#DejaVuSans-3c" x="1766.128906"/>
     <use xlink:href="#DejaVuSans-20" x="1849.917969"/>
     <use xlink:href="#DejaVuSans-31" x="1881.705078"/>
     <use xlink:href="#DejaVuSans-30" x="1945.328125"/>
     <use xlink:href="#DejaVuSans-20" x="2008.951172"/>
     <use xlink:href="#DejaVuSans-5c" x="2040.738281"/>
     <use xlink:href="#DejaVuSans-5c" x="2074.429688"/>
    </g>
    <!-- G, &amp; \text{{if }} 10 \leq \text{{LCS}}(s,t) &lt; 13 \\ -->
    <g style="fill: #333333" transform="translate(99.473437 177.659063) scale(0.15 -0.15)">
     <defs>
      <path id="DejaVuSans-47" d="M 3809 666 
L 3809 1919 
L 2778 1919 
L 2778 2438 
L 4434 2438 
L 4434 434 
Q 4069 175 3628 42 
Q 3188 -91 2688 -91 
Q 1594 -91 976 548 
Q 359 1188 359 2328 
Q 359 3472 976 4111 
Q 1594 4750 2688 4750 
Q 3144 4750 3555 4637 
Q 3966 4525 4313 4306 
L 4313 3634 
Q 3963 3931 3569 4081 
Q 3175 4231 2741 4231 
Q 1884 4231 1454 3753 
Q 1025 3275 1025 2328 
Q 1025 1384 1454 906 
Q 1884 428 2741 428 
Q 3075 428 3337 486 
Q 3600 544 3809 666 
z
" transform="scale(0.015625)"/>
      <path id="DejaVuSans-6c" d="M 603 4863 
L 1178 4863 
L 1178 0 
L 603 0 
L 603 4863 
z
" transform="scale(0.015625)"/>
      <path id="DejaVuSans-71" d="M 947 1747 
Q 947 1113 1208 752 
Q 1469 391 1925 391 
Q 2381 391 2643 752 
Q 2906 1113 2906 1747 
Q 2906 2381 2643 2742 
Q 2381 3103 1925 3103 
Q 1469 3103 1208 2742 
Q 947 2381 947 1747 
z
M 2906 525 
Q 2725 213 2448 61 
Q 2172 -91 1784 -91 
Q 1150 -91 751 415 
Q 353 922 353 1747 
Q 353 2572 751 3078 
Q 1150 3584 1784 3584 
Q 2172 3584 2448 3432 
Q 2725 3281 2906 2969 
L 2906 3500 
L 3481 3500 
L 3481 -1331 
L 2906 -1331 
L 2906 525 
z
" transform="scale(0.015625)"/>
      <path id="DejaVuSans-33" d="M 2597 2516 
Q 3050 2419 3304 2112 
Q 3559 1806 3559 1356 
Q 3559 666 3084 287 
Q 2609 -91 1734 -91 
Q 1441 -91 1130 -33 
Q 819 25 488 141 
L 488 750 
Q 750 597 1062 519 
Q 1375 441 1716 441 
Q 2309 441 2620 675 
Q 2931 909 2931 1356 
Q 2931 1769 2642 2001 
Q 2353 2234 1838 2234 
L 1294 2234 
L 1294 2753 
L 1863 2753 
Q 2328 2753 2575 2939 
Q 2822 3125 2822 3475 
Q 2822 3834 2567 4026 
Q 2313 4219 1838 4219 
Q 1578 4219 1281 4162 
Q 984 4106 628 3988 
L 628 4550 
Q 988 4650 1302 4700 
Q 1616 4750 1894 4750 
Q 2613 4750 3031 4423 
Q 3450 4097 3450 3541 
Q 3450 3153 3228 2886 
Q 3006 2619 2597 2516 
z
" transform="scale(0.015625)"/>
     </defs>
     <use xlink:href="#DejaVuSans-47"/>
     <use xlink:href="#DejaVuSans-2c" x="77.490234"/>
     <use xlink:href="#DejaVuSans-20" x="109.277344"/>
     <use xlink:href="#DejaVuSans-26" x="141.064453"/>
     <use xlink:href="#DejaVuSans-20" x="219.042969"/>
     <use xlink:href="#DejaVuSans-5c" x="250.830078"/>
     <use xlink:href="#DejaVuSans-74" x="284.521484"/>
     <use xlink:href="#DejaVuSans-65" x="323.730469"/>
     <use xlink:href="#DejaVuSans-78" x="383.503906"/>
     <use xlink:href="#DejaVuSans-74" x="442.683594"/>
     <use xlink:href="#DejaVuSans-7b" x="481.892578"/>
     <use xlink:href="#DejaVuSans-7b" x="545.515625"/>
     <use xlink:href="#DejaVuSans-69" x="609.138672"/>
     <use xlink:href="#DejaVuSans-66" x="636.921875"/>
     <use xlink:href="#DejaVuSans-20" x="672.126953"/>
     <use xlink:href="#DejaVuSans-7d" x="703.914062"/>
     <use xlink:href="#DejaVuSans-7d" x="767.537109"/>
     <use xlink:href="#DejaVuSans-20" x="831.160156"/>
     <use xlink:href="#DejaVuSans-31" x="862.947266"/>
     <use xlink:href="#DejaVuSans-30" x="926.570312"/>
     <use xlink:href="#DejaVuSans-20" x="990.193359"/>
     <use xlink:href="#DejaVuSans-5c" x="1021.980469"/>
     <use xlink:href="#DejaVuSans-6c" x="1055.671875"/>
     <use xlink:href="#DejaVuSans-65" x="1083.455078"/>
     <use xlink:href="#DejaVuSans-71" x="1144.978516"/>
     <use xlink:href="#DejaVuSans-20" x="1208.455078"/>
     <use xlink:href="#DejaVuSans-5c" x="1240.242188"/>
     <use xlink:href="#DejaVuSans-74" x="1273.933594"/>
     <use xlink:href="#DejaVuSans-65" x="1313.142578"/>
     <use xlink:href="#DejaVuSans-78" x="1372.916016"/>
     <use xlink:href="#DejaVuSans-74" x="1432.095703"/>
     <use xlink:href="#DejaVuSans-7b" x="1471.304688"/>
     <use xlink:href="#DejaVuSans-7b" x="1534.927734"/>
     <use xlink:href="#DejaVuSans-4c" x="1598.550781"/>
     <use xlink:href="#DejaVuSans-43" x="1654.263672"/>
     <use xlink:href="#DejaVuSans-53" x="1724.087891"/>
     <use xlink:href="#DejaVuSans-7d" x="1787.564453"/>
     <use xlink:href="#DejaVuSans-7d" x="1851.1875"/>
     <use xlink:href="#DejaVuSans-28" x="1914.810547"/>
     <use xlink:href="#DejaVuSans-73" x="1953.824219"/>
     <use xlink:href="#DejaVuSans-2c" x="2005.923828"/>
     <use xlink:href="#DejaVuSans-74" x="2037.710938"/>
     <use xlink:href="#DejaVuSans-29" x="2076.919922"/>
     <use xlink:href="#DejaVuSans-20" x="2115.933594"/>
     <use xlink:href="#DejaVuSans-3c" x="2147.720703"/>
     <use xlink:href="#DejaVuSans-20" x="2231.509766"/>
     <use xlink:href="#DejaVuSans-31" x="2263.296875"/>
     <use xlink:href="#DejaVuSans-33" x="2326.919922"/>
     <use xlink:href="#DejaVuSans-20" x="2390.542969"/>
     <use xlink:href="#DejaVuSans-5c" x="2422.330078"/>
     <use xlink:href="#DejaVuSans-5c" x="2456.021484"/>
    </g>
    <!-- F, &amp; \text{{if }} 13 \leq \text{{LCS}}(s,t) &lt; 17 \\ -->
    <g style="fill: #333333" transform="translate(100.971094 194.455781) scale(0.15 -0.15)">
     <defs>
      <path id="DejaVuSans-46" d="M 628 4666 
L 3309 4666 
L 3309 4134 
L 1259 4134 
L 1259 2759 
L 3109 2759 
L 3109 2228 
L 1259 2228 
L 1259 0 
L 628 0 
L 628 4666 
z
" transform="scale(0.015625)"/>
      <path id="DejaVuSans-37" d="M 525 4666 
L 3525 4666 
L 3525 4397 
L 1831 0 
L 1172 0 
L 2766 4134 
L 525 4134 
L 525 4666 
z
" transform="scale(0.015625)"/>
     </defs>
     <use xlink:href="#DejaVuSans-46"/>
     <use xlink:href="#DejaVuSans-2c" x="57.519531"/>
     <use xlink:href="#DejaVuSans-20" x="89.306641"/>
     <use xlink:href="#DejaVuSans-26" x="121.09375"/>
     <use xlink:href="#DejaVuSans-20" x="199.072266"/>
     <use xlink:href="#DejaVuSans-5c" x="230.859375"/>
     <use xlink:href="#DejaVuSans-74" x="264.550781"/>
     <use xlink:href="#DejaVuSans-65" x="303.759766"/>
     <use xlink:href="#DejaVuSans-78" x="363.533203"/>
     <use xlink:href="#DejaVuSans-74" x="422.712891"/>
     <use xlink:href="#DejaVuSans-7b" x="461.921875"/>
     <use xlink:href="#DejaVuSans-7b" x="525.544922"/>
     <use xlink:href="#DejaVuSans-69" x="589.167969"/>
     <use xlink:href="#DejaVuSans-66" x="616.951172"/>
     <use xlink:href="#DejaVuSans-20" x="652.15625"/>
     <use xlink:href="#DejaVuSans-7d" x="683.943359"/>
     <use xlink:href="#DejaVuSans-7d" x="747.566406"/>
     <use xlink:href="#DejaVuSans-20" x="811.189453"/>
     <use xlink:href="#DejaVuSans-31" x="842.976562"/>
     <use xlink:href="#DejaVuSans-33" x="906.599609"/>
     <use xlink:href="#DejaVuSans-20" x="970.222656"/>
     <use xlink:href="#DejaVuSans-5c" x="1002.009766"/>
     <use xlink:href="#DejaVuSans-6c" x="1035.701172"/>
     <use xlink:href="#DejaVuSans-65" x="1063.484375"/>
     <use xlink:href="#DejaVuSans-71" x="1125.007812"/>
     <use xlink:href="#DejaVuSans-20" x="1188.484375"/>
     <use xlink:href="#DejaVuSans-5c" x="1220.271484"/>
     <use xlink:href="#DejaVuSans-74" x="1253.962891"/>
     <use xlink:href="#DejaVuSans-65" x="1293.171875"/>
     <use xlink:href="#DejaVuSans-78" x="1352.945312"/>
     <use xlink:href="#DejaVuSans-74" x="1412.125"/>
     <use xlink:href="#DejaVuSans-7b" x="1451.333984"/>
     <use xlink:href="#DejaVuSans-7b" x="1514.957031"/>
     <use xlink:href="#DejaVuSans-4c" x="1578.580078"/>
     <use xlink:href="#DejaVuSans-43" x="1634.292969"/>
     <use xlink:href="#DejaVuSans-53" x="1704.117188"/>
     <use xlink:href="#DejaVuSans-7d" x="1767.59375"/>
     <use xlink:href="#DejaVuSans-7d" x="1831.216797"/>
     <use xlink:href="#DejaVuSans-28" x="1894.839844"/>
     <use xlink:href="#DejaVuSans-73" x="1933.853516"/>
     <use xlink:href="#DejaVuSans-2c" x="1985.953125"/>
     <use xlink:href="#DejaVuSans-74" x="2017.740234"/>
     <use xlink:href="#DejaVuSans-29" x="2056.949219"/>
     <use xlink:href="#DejaVuSans-20" x="2095.962891"/>
     <use xlink:href="#DejaVuSans-3c" x="2127.75"/>
     <use xlink:href="#DejaVuSans-20" x="2211.539062"/>
     <use xlink:href="#DejaVuSans-31" x="2243.326172"/>
     <use xlink:href="#DejaVuSans-37" x="2306.949219"/>
     <use xlink:href="#DejaVuSans-20" x="2370.572266"/>
     <use xlink:href="#DejaVuSans-5c" x="2402.359375"/>
     <use xlink:href="#DejaVuSans-5c" x="2436.050781"/>
    </g>
    <!-- E, &amp; \text{{if }} \text{{LCS}}(s,t) \geq 17 \\ -->
    <g style="fill: #333333" transform="translate(118.463672 211.2525) scale(0.15 -0.15)">
     <defs>
      <path id="DejaVuSans-45" d="M 628 4666 
L 3578 4666 
L 3578 4134 
L 1259 4134 
L 1259 2753 
L 3481 2753 
L 3481 2222 
L 1259 2222 
L 1259 531 
L 3634 531 
L 3634 0 
L 628 0 
L 628 4666 
z
" transform="scale(0.015625)"/>
     </defs>
     <use xlink:href="#DejaVuSans-45"/>
     <use xlink:href="#DejaVuSans-2c" x="63.183594"/>
     <use xlink:href="#DejaVuSans-20" x="94.970703"/>
     <use xlink:href="#DejaVuSans-26" x="126.757812"/>
     <use xlink:href="#DejaVuSans-20" x="204.736328"/>
     <use xlink:href="#DejaVuSans-5c" x="236.523438"/>
     <use xlink:href="#DejaVuSans-74" x="270.214844"/>
     <use xlink:href="#DejaVuSans-65" x="309.423828"/>
     <use xlink:href="#DejaVuSans-78" x="369.197266"/>
     <use xlink:href="#DejaVuSans-74" x="428.376953"/>
     <use xlink:href="#DejaVuSans-7b" x="467.585938"/>
     <use xlink:href="#DejaVuSans-7b" x="531.208984"/>
     <use xlink:href="#DejaVuSans-69" x="594.832031"/>
     <use xlink:href="#DejaVuSans-66" x="622.615234"/>
     <use xlink:href="#DejaVuSans-20" x="657.820312"/>
     <use xlink:href="#DejaVuSans-7d" x="689.607422"/>
     <use xlink:href="#DejaVuSans-7d" x="753.230469"/>
     <use xlink:href="#DejaVuSans-20" x="816.853516"/>
     <use xlink:href="#DejaVuSans-5c" x="848.640625"/>
     <use xlink:href="#DejaVuSans-74" x="882.332031"/>
     <use xlink:href="#DejaVuSans-65" x="921.541016"/>
     <use xlink:href="#DejaVuSans-78" x="981.314453"/>
     <use xlink:href="#DejaVuSans-74" x="1040.494141"/>
     <use xlink:href="#DejaVuSans-7b" x="1079.703125"/>
     <use xlink:href="#DejaVuSans-7b" x="1143.326172"/>
     <use xlink:href="#DejaVuSans-4c" x="1206.949219"/>
     <use xlink:href="#DejaVuSans-43" x="1262.662109"/>
     <use xlink:href="#DejaVuSans-53" x="1332.486328"/>
     <use xlink:href="#DejaVuSans-7d" x="1395.962891"/>
     <use xlink:href="#DejaVuSans-7d" x="1459.585938"/>
     <use xlink:href="#DejaVuSans-28" x="1523.208984"/>
     <use xlink:href="#DejaVuSans-73" x="1562.222656"/>
     <use xlink:href="#DejaVuSans-2c" x="1614.322266"/>
     <use xlink:href="#DejaVuSans-74" x="1646.109375"/>
     <use xlink:href="#DejaVuSans-29" x="1685.318359"/>
     <use xlink:href="#DejaVuSans-20" x="1724.332031"/>
     <use xlink:href="#DejaVuSans-5c" x="1756.119141"/>
     <use xlink:href="#DejaVuSans-67" x="1789.810547"/>
     <use xlink:href="#DejaVuSans-65" x="1853.287109"/>
     <use xlink:href="#DejaVuSans-71" x="1914.810547"/>
     <use xlink:href="#DejaVuSans-20" x="1978.287109"/>
     <use xlink:href="#DejaVuSans-31" x="2010.074219"/>
     <use xlink:href="#DejaVuSans-37" x="2073.697266"/>
     <use xlink:href="#DejaVuSans-20" x="2137.320312"/>
     <use xlink:href="#DejaVuSans-5c" x="2169.107422"/>
     <use xlink:href="#DejaVuSans-5c" x="2202.798828"/>
    </g>
    <!-- \end{cases} -->
    <g style="fill: #333333" transform="translate(238.851562 228.049219) scale(0.15 -0.15)">
     <defs>
      <path id="DejaVuSans-64" d="M 2906 2969 
L 2906 4863 
L 3481 4863 
L 3481 0 
L 2906 0 
L 2906 525 
Q 2725 213 2448 61 
Q 2172 -91 1784 -91 
Q 1150 -91 751 415 
Q 353 922 353 1747 
Q 353 2572 751 3078 
Q 1150 3584 1784 3584 
Q 2172 3584 2448 3432 
Q 2725 3281 2906 2969 
z
M 947 1747 
Q 947 1113 1208 752 
Q 1469 391 1925 391 
Q 2381 391 2643 752 
Q 2906 1113 2906 1747 
Q 2906 2381 2643 2742 
Q 2381 3103 1925 3103 
Q 1469 3103 1208 2742 
Q 947 2381 947 1747 
z
" transform="scale(0.015625)"/>
     </defs>
     <use xlink:href="#DejaVuSans-5c"/>
     <use xlink:href="#DejaVuSans-65" x="33.691406"/>
     <use xlink:href="#DejaVuSans-6e" x="95.214844"/>
     <use xlink:href="#DejaVuSans-64" x="158.59375"/>
     <use xlink:href="#DejaVuSans-7b" x="222.070312"/>
     <use xlink:href="#DejaVuSans-63" x="285.693359"/>
     <use xlink:href="#DejaVuSans-61" x="340.673828"/>
     <use xlink:href="#DejaVuSans-73" x="401.953125"/>
     <use xlink:href="#DejaVuSans-65" x="454.052734"/>
     <use xlink:href="#DejaVuSans-73" x="515.576172"/>
     <use xlink:href="#DejaVuSans-7d" x="567.675781"/>
    </g>
    <!--  -->
    <g style="fill: #333333" transform="translate(286.2 244.845937) scale(0.15 -0.15)"/>
   </g>
  </g>
 </g>
</svg>
